<svg xmlns="http://www.w3.org/2000/svg" width="22" height="22" viewBox="0 0 22 22"><defs><style>.a{fill:#fff;}</style></defs><path class="a" d="M-5-221H-19a4,4,0,0,1-4-4v-14a4,4,0,0,1,4-4H-5a4,4,0,0,1,4,4v14A4,4,0,0,1-5-221Zm-4.161-10.248v3.147a1.507,1.507,0,0,0,1.5,1.5,1.507,1.507,0,0,0,1.506-1.5v-7.8a1.507,1.507,0,0,0-1.506-1.5,1.507,1.507,0,0,0-1.5,1.5v3.454a.906.906,0,0,0-.228-.188l-7.1-4.1a.91.91,0,0,0-.454-.121.91.91,0,0,0-.454.121.91.91,0,0,0-.454.787v8.2a.909.909,0,0,0,.454.786.911.911,0,0,0,.455.122.909.909,0,0,0,.454-.122l7.1-4.1a.885.885,0,0,0,.226-.186Z" transform="translate(23 243)"/></svg>