<svg xmlns="http://www.w3.org/2000/svg" width="22" height="22.001" viewBox="0 0 22 22.001"><defs><style>.a{fill:#fff;}</style></defs><g transform="translate(0 0)"><path class="a" d="M-5-274H-19a4.005,4.005,0,0,1-4-4v-14a4.005,4.005,0,0,1,4-4H-5a4.005,4.005,0,0,1,4,4v14A4.005,4.005,0,0,1-5-274ZM-15.43-284.315a2.759,2.759,0,0,0-2.744,2.744v1.83a.914.914,0,0,0,.268.643.909.909,0,0,0,.643.265l3.662.006a.918.918,0,0,0,.914-.914v-1.83A2.756,2.756,0,0,0-15.43-284.315ZM-15.5-289.8a2,2,0,0,0-1.99,1.989v.823A2,2,0,0,0-15.5-285h.137a2,2,0,0,0,1.989-1.989v-.823a2,2,0,0,0-1.989-1.989Zm4.184-1.372a.687.687,0,0,0-.686.687v2.743a.687.687,0,0,0,.686.686h.686v1.03a.339.339,0,0,0,.2.309.38.38,0,0,0,.144.034.324.324,0,0,0,.22-.083l.816-1.29h2.737a.687.687,0,0,0,.686-.686v-2.743a.687.687,0,0,0-.686-.687Z" transform="translate(23 296)"/></g></svg>